<svg id="After_Effects" data-name="After Effects" xmlns="http://www.w3.org/2000/svg" viewBox="0 0 960 960"><title>Ae</title><rect id="background" width="960" height="960" style="fill:#d7a7ff"/><rect id="foreground" x="40" y="40" width="880" height="880" style="fill:#2a0a50"/><path id="Ae" d="M782.37,556.84q5-4.64,6-53.79,0.49-50.46-27.39-94.3-28.39-43.83-91.64-46.48c-44.5,1.33-79.36,20.37-102.6,53.13s-34.86,73-34.86,120.86q-1,67.73,31.88,117.54,32.87,50.47,111.56,53.13,53.79,0,87.16-18.59,4-2,4-8.63V612.62c0-3.54-1.17-4.87-3.49-4q-36.86,15.94-69.73,14.61-40.84-.65-59.77-18.59-18.93-17.26-20.42-42.5H724.59Q773.4,562.15,782.37,556.84Zm-67.24-75v7.83l-20.92.14H614.73a73.88,73.88,0,0,1,15.73-35.86q12.94-15.94,36.86-17.27,28.39,1.34,38.35,17.27T715.13,481.8Zm-261.61-2.66Q420.64,367.58,389.77,264q-1.49-4-4.48-4H294.64q-3.49,0-3.49,5.31-2,35.86-6,42.5Q257.28,399.45,226.41,507c-20.59,71.72-38.68,131.66-54.29,184.34q-2,6.65,4.48,6.64h67.73c3.31,0.44,5.64-1.55,7-6L280.19,590.7H403.71l-0.5,1.33,31.38,102.66q1,5.31,5.48,5.31h74.21q6,0,3.49-6.64C496.85,623.42,475.43,553.52,453.52,479.14ZM298,511q11.29-41.89,23.55-87.66Q334,376.89,341,341h0.5q9,38.52,21.91,86.33,13.45,47.81,22.41,83.67H298Z" style="fill:#d7a7ff"/></svg>