<svg id="Illustrator" xmlns="http://www.w3.org/2000/svg" viewBox="0 0 960 960"><title>Ai</title><rect id="background" width="960" height="960" style="fill:#f98f0a"/><rect id="foreground" x="40" y="40" width="880" height="880" style="fill:#331900"/><path id="Ai" d="M483.4,590.7H359.89L331,692c-1.33,4.43-3.66,6.41-7,6H256.29q-6.48,0-4.48-6.64c15.6-52.68,33.7-112.62,54.29-184.34s40.17-138.12,58.77-199.22q4-6.63,6-42.5,0-5.31,3.49-5.31H465q3,0,4.48,4,30.88,103.59,63.75,215.16c21.91,74.38,43.33,144.27,64.25,214.22Q599.94,700,594,700H519.76q-4.48,0-5.48-5.31L482.9,592ZM376.82,511h88.65q-9-35.86-22.41-83.67-13-47.81-21.91-86.33h-0.5q-7,35.86-19.42,82.34t-23.91,89v-0.66ZM679.33,343q-40.84-1.32-43.33-48.48,3-46.47,44.82-48.48,40.83,2,42.83,48.48-2,47.16-43.83,48.48v-0.66Zm-38.85,39.84q0-5.31,5-5.31h70.72q6-1.32,5.48,5.31V693.63q0.49,6-5.48,6H646.46c-4,.44-6-1.55-6-6V382.89Z" style="fill:#f98f0a"/></svg>