<svg id="Director" xmlns="http://www.w3.org/2000/svg" viewBox="0 0 960 960"><title>Di</title><rect id="background" width="960" height="960" style="fill:#fc6400"/><rect id="foreground" x="40" y="40" width="880" height="880" style="fill:#2f1102"/><path id="Di" d="M382.56,260H265c-3,.89-4.32,2.66-4,5.31l-0.5,427.29c0,4.43,2.4,7.43,5,7.4l106.56-.09q39.34,1.32,85.66-16.6C488.65,671.8,515.37,654,538,621.25s34.37-80.57,35.36-143.44q0-99.61-48.81-158Q476.19,261.34,382.56,260Zm77.2,334.69q-31.38,35.86-84.17,35.86-17.93,0-33.87-.66V339c5.64-.88,20.42-0.66,42.33-0.66q105.58,0,107.58,143.44Q490.63,558.84,459.76,594.69Zm152-295.47q3-46.47,44.82-48.48,40.83,2,42.83,48.48-2,47.16-43.83,48.48V347l-0.5.66Q614.29,346.37,611.8,299.22Zm85.66,88.32V694q0.49,6-5.48,6H622.26c-4,.44-6-1.55-6-6V387.54q0-5.31,5-5.31H692Q698,380.9,697.47,387.54Z" style="fill:#fc6400"/></svg>