<svg id="Flash" xmlns="http://www.w3.org/2000/svg" viewBox="0 0 960 960"><title>Fl</title><rect id="background" width="960" height="960" style="fill:#ff3d1c"/><rect id="foreground" x="40" y="40" width="880" height="880" style="fill:#260600"/><path id="Fl" d="M527,332.67q1,6.65-5,6.64H368.59V448.88H507q5-1.32,5,5.31v67.73q0,6-4,6H369.59v-0.66h-1V694c0,4.43-1.67,6.41-5,6H291.89q-4,0-4-6V264.93c0-3.54,1.66-5.3,5-4.87L515,260.28c3.39,0,4.52,1.22,5,5.31ZM692,695V634.55q0-4.64-3-4a64.85,64.85,0,0,1-12,1.33q-15.95,2-16.44-23.24V266q0-6.63-5-6H586q-6,0-6,6V621.27c0.33,32.77,8,56.23,19.92,69.06q18.42,19.25,49.31,18.59,27.89-.67,38.85-7.3Q692.54,702.95,692,695Z" style="fill:#ff3d1c"/></svg>