<svg id="HTML5" xmlns="http://www.w3.org/2000/svg" viewBox="0 0 960 960"><title>H5</title><rect id="background" width="960" height="960" style="fill:#e34f26"/><rect id="foreground" x="480" y="40" width="440" height="880" style="fill:#ef652a"/><g id="_5" data-name="5"><path d="M479.8,416.75H377.56L370.69,337H479.8V260H285.44l1.38,20.63,19.25,214.5H479.8V416.75Zm0,202.13h0L392.69,595.5l-5.5-61.87h-77L319.81,656l160,44h0V618.88Z" style="fill:#ebebeb"/><path d="M479.8,416.75v78.38h95.76L565.94,595.5,479.8,618.88V700l159-44,1.38-13.75,17.88-204.87,2.75-20.62h-181Zm0-156.75v77H667.69l1.38-16.5,4.13-39.87L674.56,260H479.8Z" style="fill:#fff"/></g></svg>