<svg id="InDesign" xmlns="http://www.w3.org/2000/svg" viewBox="0 0 960 960"><title>Id</title><rect id="background" width="960" height="960" style="fill:#ff5ba3"/><rect id="foreground" x="40" y="40" width="880" height="880" style="fill:#330212"/><path id="Id" d="M356.57,693.36q0.49,6.65-5,6.64H280.87q-5.49,0-5.48-6.64V265.53q0-6.63,5-5.31h70.72c3.48,0,5.48.89,5.48,5.31V693.36Zm324.37-23.12q-58.77,33.21-118.54,34.53c-42.51,0-77.53-14.38-104.09-41.84q-39.85-41.84-40.84-126.84,1-71.72,42.83-122.19t117-52.46q14.94,0,23.91,2.66V265.31q0.49-5.31,4-5.31h73.71q4,0,3.49,4V611.8q0,27.89,2,51.13Q685.42,667.58,680.94,670.23Zm-80.68-52.46,0.5-.3V445.78q-10-4-26.4-4-32.38,0-53.29,22.58t-21.91,68.4q1,47.16,20.92,68.4t50.3,21.25Q587.3,622.42,600.26,617.77Z" style="fill:#ff5ba3"/></svg>