<svg id="Photoshop" xmlns="http://www.w3.org/2000/svg" viewBox="0 0 960 960"><title>Ps</title><rect id="background" width="960" height="960" style="fill:#31d2fb"/><rect id="foreground" x="40" y="40" width="880" height="880" style="fill:#292842"/><path id="Ps" d="M755.61,600.66q-0.5,50.47-29.38,78.36t-78.69,27.89a171.37,171.37,0,0,1-45.82-6.64,144.45,144.45,0,0,1-43.33-19.92c-2.66-1.76-4-4.65-4-8.63v-75q1-5.31,4.48-2.66,48.8,34.54,93.13,36.52,28.88-2.65,27.39-21.25,1-8.62-8-16.6t-35.86-21.91q-45.83-21.24-63.75-45.16t-16.93-59.1q0-43.83,26.89-73,27.38-29.21,80.19-30.55,50.3,1.34,75.21,20.59,4,2.66,4,9.3l-1,68.4q0,6.65-5,4.65c-22.91-15.94-49-21.47-80.19-23.24q-27.9,2.66-25.9,19.92-1,7.32,7.47,13.95,8.46,7.32,35.36,20.59Q715.75,517,735.69,540.9T755.61,600.66ZM472,305.82q33.86,43.83,32.87,104.92-1.49,81-47.31,119.53Q411.69,568.13,347,568.13H315.57V694.69c0.33,3.55-1.17,5.31-4.48,5.31H241.37c-3.32,0-5-1.76-5-5.31V266c0-3.54,1.32-5.31,4-5.31Q257.8,260,288.68,260h65.74Q438.09,262,472,305.82ZM426.14,411.41q0.49-73.71-72.22-75.7-28.9,0-36.86,1.16V490.43h33.37q30.88,0.67,52.79-17.27T426.14,411.41Z" style="fill:#31d2fb"/></svg>