<svg viewBox="0 0 40 20" xmlns="http://www.w3.org/2000/svg"><g fill="#fff"><path d="m3.27 11.28.89-.08a2 2 0 0 0 .3.88 1.62 1.62 0 0 0 .72.56 2.74 2.74 0 0 0 1.1.21 2.63 2.63 0 0 0 1-.16 1.33 1.33 0 0 0 .62-.44 1 1 0 0 0 .2-.61.93.93 0 0 0 -.24-.64 1.44 1.44 0 0 0 -.64-.42 12.65 12.65 0 0 0 -1.27-.35 6.5 6.5 0 0 1 -1.38-.45 1.93 1.93 0 0 1 -.76-.67 1.63 1.63 0 0 1 -.25-.89 1.82 1.82 0 0 1 .31-1 1.91 1.91 0 0 1 .9-.72 3.41 3.41 0 0 1 1.29-.2 3.6 3.6 0 0 1 1.4.26 2 2 0 0 1 .93.75 2.17 2.17 0 0 1 .35 1.13l-.91.07a1.47 1.47 0 0 0 -.5-1 1.93 1.93 0 0 0 -1.23-.38 2 2 0 0 0 -1.25.31.94.94 0 0 0 -.39.76.81.81 0 0 0 .28.63 3.78 3.78 0 0 0 1.43.51 9.43 9.43 0 0 1 1.58.46 2.17 2.17 0 0 1 .92.73 1.78 1.78 0 0 1 .3 1 2 2 0 0 1 -.33 1.08 2.15 2.15 0 0 1 -.94.79 3.29 3.29 0 0 1 -1.38.28 4.12 4.12 0 0 1 -1.63-.28 2.28 2.28 0 0 1 -1-.85 2.42 2.42 0 0 1 -.42-1.27zm7 2.3v-7.16h.95v2.94h3.78v-2.94h.9v7.16h-.9v-3.37h-3.76v3.37h-.95zm6.41 0 2.75-7.16h1l2.93 7.16h-1.05l-.83-2.17h-3l-.78 2.17h-1zm2.07-2.94h2.43l-.75-2q-.34-.9-.51-1.48a9.09 9.09 0 0 1 -.39 1.37zm5.41 2.94v-7.16h3.17a4.23 4.23 0 0 1 1.46.19 1.59 1.59 0 0 1 .8.68 2 2 0 0 1 .3 1.08 1.8 1.8 0 0 1 -.49 1.28 2.5 2.5 0 0 1 -1.52.66 2.45 2.45 0 0 1 .57.36 4.92 4.92 0 0 1 .79 1l1.25 1.95h-1.21l-.95-1.49q-.41-.64-.68-1a2.12 2.12 0 0 0 -.48-.48 1.4 1.4 0 0 0 -.43-.19 2.83 2.83 0 0 0 -.53 0h-1.1v3.18h-.94zm.95-4h2a3.06 3.06 0 0 0 1-.13 1.08 1.08 0 0 0 .61-.45 1.16 1.16 0 0 0 .19-.64 1.07 1.07 0 0 0 -.37-.83 1.73 1.73 0 0 0 -1.17-.33h-2.26zm6.28 4v-7.16h5.18v.85h-4.23v2.19h4v.84h-4v2.44h4.39v.84z"/><path d="m0 0h40v20h-40z" opacity="0"/></g></svg>