<svg viewBox="0 0 20 20" xmlns="http://www.w3.org/2000/svg"><path d="m2 2h16v16h-16z" fill="#1da1f2"/><path d="m8.1 14.1a5.72 5.72 0 0 0 5.8-5.8.77.77 0 0 0 .1-.3 5.24 5.24 0 0 0 1-1.1 2.66 2.66 0 0 1 -1.2.3 3.13 3.13 0 0 0 .9-1.1 5 5 0 0 1 -1.3.5 2 2 0 0 0 -1.5-.6 2.11 2.11 0 0 0 -2.1 2.1.9.9 0 0 0 .1.5 6.12 6.12 0 0 1 -4.2-2.3 1.93 1.93 0 0 0 -.3 1 2.23 2.23 0 0 0 .9 1.7 2.92 2.92 0 0 1 -.9-.2 2 2 0 0 0 1.6 2 4.33 4.33 0 0 0 -.5.1h-.4a2 2 0 0 0 1.9 1.4 3.84 3.84 0 0 1 -2.5.9h-.5a6.58 6.58 0 0 0 3.1.9" fill="#fff"/><path d="m0 0h20v20h-20z" fill="none"/></svg>